<?xml version="1.0" encoding="UTF-8"?>
<svg id="Layer_2" data-name="Layer 2" xmlns="http://www.w3.org/2000/svg" xmlns:xlink="http://www.w3.org/1999/xlink" viewBox="0 0 432.3 217.67">
  <defs>
    <style>
      .cls-1 {
        fill: url(#linear-gradient-2);
      }

      .cls-2 {
        fill: url(#linear-gradient-10);
      }

      .cls-3 {
        fill: url(#linear-gradient-12);
      }

      .cls-4, .cls-5 {
        font-family: Nexa-Thin, Nexa-Thin;
        font-weight: 200;
      }

      .cls-4, .cls-5, .cls-6 {
        fill: #fff;
      }

      .cls-4, .cls-6 {
        font-size: 82.77px;
      }

      .cls-5 {
        font-size: 28.12px;
      }

      .cls-7 {
        fill: url(#linear-gradient-4);
      }

      .cls-8 {
        fill: url(#linear-gradient-3);
      }

      .cls-9 {
        fill: url(#linear-gradient-5);
      }

      .cls-10 {
        fill: url(#linear-gradient-8);
      }

      .cls-11 {
        fill: url(#linear-gradient-7);
      }

      .cls-12 {
        fill: url(#linear-gradient-9);
      }

      .cls-13 {
        fill: url(#linear-gradient-11);
      }

      .cls-14 {
        fill: url(#linear-gradient-6);
      }

      .cls-6 {
        font-family: Nexa-Bold, Nexa;
        font-weight: 700;
      }

      .cls-15 {
        fill: url(#linear-gradient);
      }
    </style>
    <linearGradient id="linear-gradient" x1="49.91" y1="54.47" x2="118.05" y2="157" gradientUnits="userSpaceOnUse">
      <stop offset="0" stop-color="#6ba0ba"/>
      <stop offset="1" stop-color="#2e2e62"/>
    </linearGradient>
    <linearGradient id="linear-gradient-2" x1="31.88" y1="94.83" x2="122.29" y2="172.59" gradientUnits="userSpaceOnUse">
      <stop offset="0" stop-color="#dcb920"/>
      <stop offset="1" stop-color="#c33b31"/>
    </linearGradient>
    <linearGradient id="linear-gradient-3" x1="20.73" y1="64.11" x2="80.68" y2="122.72" xlink:href="#linear-gradient"/>
    <linearGradient id="linear-gradient-4" x1="13.4" y1="30.75" x2="73.53" y2="95.85" xlink:href="#linear-gradient-2"/>
    <linearGradient id="linear-gradient-5" x1="23.86" y1="12.37" x2="61.83" y2="67.98" gradientUnits="userSpaceOnUse">
      <stop offset="0" stop-color="#b62d83"/>
      <stop offset="1" stop-color="#571540"/>
    </linearGradient>
    <linearGradient id="linear-gradient-6" x1="13.76" y1="110.8" x2="82.93" y2="146.97" xlink:href="#linear-gradient-5"/>
    <linearGradient id="linear-gradient-7" x1="51.07" y1="151.61" x2="114" y2="173.98" xlink:href="#linear-gradient"/>
    <linearGradient id="linear-gradient-8" x1="49.11" y1="199.68" x2="117.37" y2="177.07" xlink:href="#linear-gradient-2"/>
    <linearGradient id="linear-gradient-9" x1="25.74" y1="181.97" x2="91.29" y2="181.06" xlink:href="#linear-gradient-5"/>
    <linearGradient id="linear-gradient-10" x1="20.36" y1="199.27" x2="51.55" y2="192.04" xlink:href="#linear-gradient-2"/>
    <linearGradient id="linear-gradient-11" x1="11.05" y1="168.07" x2="77.95" y2="163.1" xlink:href="#linear-gradient-2"/>
    <linearGradient id="linear-gradient-12" x1="9.18" y1="147.17" x2="68.23" y2="150.45" xlink:href="#linear-gradient"/>
  </defs>
  <g id="Layer_1-2" data-name="Layer 1">
    <g>
      <g>
        <polygon class="cls-15" points="127.36 179.6 148.91 179.6 50.53 37.77 50.5 50.44 71.22 80.79 74.23 114.87 127.36 179.6"/>
        <polygon class="cls-1" points="127.36 179.6 31.17 114.7 29.54 72.34 102.63 149.48 127.36 179.6"/>
        <polygon class="cls-8" points="72.92 100.01 19.73 39.8 21.09 87.8 30.41 94.95 29.54 72.34 126.95 179.11 74.23 114.87 72.92 100.01"/>
        <polygon class="cls-7" points="72.92 100.01 71.81 87.45 24.5 27.55 0 31.46 20.04 50.79 19.73 39.8 72.92 100.01"/>
        <polygon class="cls-9" points="24.5 27.55 25.13 0 50.53 37.77 50.5 50.44 71.22 80.79 71.81 87.45 24.5 27.55"/>
        <polygon class="cls-14" points="127.36 179.6 13.2 127.25 2.56 88.2 30.75 103.75 31.17 114.7 127.36 179.6"/>
        <polygon class="cls-11" points="102.21 162.63 52.51 147.25 49.98 153.38 75.02 160.89 78.45 168.5 127.36 179.6 102.21 162.63"/>
        <polygon class="cls-10" points="127.36 179.6 52.57 216.71 54.2 179.82 127.36 179.6"/>
        <polygon class="cls-12" points="53.64 192.34 44.36 193.73 21.36 170.01 85.41 170.08 127.36 179.6 54.2 179.82 53.64 192.34"/>
        <polygon class="cls-2" points="53.64 192.34 44.36 193.73 35.71 184.81 28.35 183.46 20.98 213.09 53.2 202.47 53.64 192.34"/>
        <polygon class="cls-13" points="27.62 176.47 10.12 175.79 31.33 156.94 64.38 157.7 75.02 160.89 78.45 168.5 85.41 170.08 21.36 170.01 27.62 176.47"/>
        <polygon class="cls-3" points="64.38 157.7 31.33 156.94 7.14 155.53 27.91 139.68 52.51 147.25 49.98 153.38 64.38 157.7"/>
      </g>
      <text class="cls-4" transform="translate(139.87 111.59)"><tspan x="0" y="0">WIDE</tspan></text>
      <text class="cls-5" transform="translate(123.81 209.29)"><tspan x="0" y="0">media &amp; advertisement</tspan></text>
      <text class="cls-6" transform="translate(141.11 177.97)"><tspan x="0" y="0">WINGS</tspan></text>
    </g>
  </g>
</svg>